<?xml version="1.0" encoding="UTF-8"?>
<svg width="322px" height="196px" viewBox="0 0 322 196" version="1.1" xmlns="http://www.w3.org/2000/svg" xmlns:xlink="http://www.w3.org/1999/xlink">
    <!-- Generator: sketchtool 59.1 (101010) - https://sketch.com -->
    <title>ED84C431-6C40-491B-B1FA-C0818F458B82</title>
    <desc>Created with sketchtool.</desc>
    <g id="Desktop" stroke="none" stroke-width="1" fill="none" fill-rule="evenodd">
        <g id="01-Homescreen" transform="translate(-306.000000, -1800.000000)">
            <g id="ECC" transform="translate(0.000000, 1760.000000)">
                <g id="img-home-ecc1" transform="translate(306.000000, 40.000000)">
                    <g id="Confetti">
                        <polygon id="Path-21" fill="#F5A623" fill-rule="nonzero" points="41.3675069 91.0661872 3.36750686 84.0661872 1.91820742 91.9338128 39.9182074 98.9338128"></polygon>
                        <circle id="Oval" fill="#F5A623" fill-rule="nonzero" cx="123.142857" cy="24.5" r="4.5"></circle>
                        <polygon id="Path-44" fill="#E949A0" fill-rule="nonzero" transform="translate(39.642857, 15.000000) scale(-1, 1) rotate(-14.000000) translate(-39.642857, -15.000000) " points="49.4026715 15.9763326 70.6428571 9.06930903 70.2969738 8 50.0542133 14.5826743 47.8154099 8.97078522 8.64285714 20.9245632 8.96929611 22 47.1568321 10.3468068"></polygon>
                        <polygon id="Path-23" fill="#F5A623" fill-rule="nonzero" points="281.642857 177.026175 313.679581 196 316.642857 190.973825 284.606134 172"></polygon>
                        <polygon id="Path-35" fill="#E949A0" fill-rule="nonzero" points="293.642857 118 312.642857 118 312.642857 114 293.642857 114"></polygon>
                        <circle id="Oval" fill="#1CE3BE" fill-rule="nonzero" cx="19.1428571" cy="46.5" r="4.5"></circle>
                        <circle id="Oval" fill="#1CE3BE" fill-rule="nonzero" cx="245.642857" cy="177" r="5"></circle>
                        <polygon id="Path-37" fill="#E949A0" fill-rule="nonzero" points="41.6428571 132 38.6428571 139 46.6428571 143 48.6428571 135"></polygon>
                        <polygon id="Path-40" fill="#F5A623" fill-rule="nonzero" points="316.642857 72 309.642857 73.6363636 309.642857 81 316.642857 79.3636364"></polygon>
                        <path d="M277.642857,40.5151546 C289.897503,47.4536388 298.863474,43.9635709 302.953493,30.6480835 C306.262186,19.8762865 311.867046,16.0315569 320.448476,18.2691336 L321.642857,13.7720745 C310.408659,10.8427979 302.455457,16.2984044 298.463655,29.294133 C295.25318,39.7461712 289.618162,41.9396421 279.971324,36.4776781 L277.642857,40.5151546 Z" id="Path-43" fill="#A885E4" fill-rule="nonzero"></path>
                        <path d="M9.28571429,148 C1.95238095,154 -0.714285714,159.666667 1.28571429,165 C4.28571429,173 15.2857143,173 21.2857143,169 C27.2857143,165 21.2857143,157 14.2857143,159 C7.28571429,161 4.28571429,173 9.28571429,178 C12.6190476,181.333333 17.952381,182 25.2857143,180" id="Path-41" stroke="#1CE3BE"></path>
                    </g>
                    <g id="PC" transform="translate(66.642857, 39.000000)">
                        <g id="Group">
                            <rect id="Rectangle" fill="#D2D2D2" fill-rule="nonzero" x="0" y="0" width="200" height="120"></rect>
                            <polygon id="Rectangle" fill="#BBBBBB" fill-rule="nonzero" points="80 140 120 140 146 150 54 150"></polygon>
                            <rect id="Rectangle" fill="#FFFFFF" x="8" y="8" width="184" height="104"></rect>
                            <rect id="Rectangle" fill="#E8E8E8" fill-rule="nonzero" x="18" y="83" width="53" height="29"></rect>
                            <circle id="Oval" fill="#BBBBBB" fill-rule="nonzero" cx="176" cy="23" r="5"></circle>
                            <circle id="Oval" fill="#BBBBBB" fill-rule="nonzero" cx="158" cy="23" r="5"></circle>
                            <circle id="Oval" fill="#BBBBBB" fill-rule="nonzero" cx="140" cy="23" r="5"></circle>
                            <polygon id="Rectangle" fill="#D2D2D2" fill-rule="nonzero" points="76 120 124 120 120 140 80 140"></polygon>
                            <polygon id="Rectangle" fill="#8E8E8E" fill-rule="nonzero" points="76 120 124 120 122.795853 126.020734 78.0102043 130.051022"></polygon>
                            <rect id="Rectangle" fill="#2A51A9" fill-rule="nonzero" x="18" y="39" width="163" height="34"></rect>
                            <path d="M57.978,59 L59.874,59 L59.874,55.64 L62.982,50.72 L62.982,50.6 L60.786,50.6 L58.962,53.768 L58.914,53.768 L57.042,50.6 L54.846,50.6 L54.846,50.72 L57.978,55.664 L57.978,59 Z M65.214,59.108 C67.254,59.108 68.346,57.74 68.346,55.868 C68.346,53.984 67.23,52.616 65.214,52.616 C63.198,52.616 62.082,53.984 62.082,55.868 C62.082,57.752 63.174,59.108 65.214,59.108 Z M65.214,57.488 C64.458,57.488 63.966,57.008 63.966,55.868 C63.966,54.74 64.446,54.236 65.214,54.236 C65.982,54.236 66.462,54.728 66.462,55.868 C66.462,57.008 65.982,57.488 65.214,57.488 Z M73.146,52.724 L73.146,56.216 C73.146,56.936 72.846,57.368 72.126,57.368 C71.394,57.368 71.094,56.936 71.094,56.216 L71.094,52.724 L69.246,52.724 L69.246,56.492 C69.246,57.7764286 70.0047551,59.0162245 71.8988533,59.103143 L72.126,59.108 C74.178,59.108 74.994,57.824 74.994,56.492 L74.994,52.724 L73.146,52.724 Z M76.194,59 L77.922,59 L77.922,55.904 C77.922,54.896 78.486,54.308 79.362,54.308 L79.962,54.308 L79.962,52.616 L79.53,52.616 C78.726,52.616 78.198,53.084 77.922,53.636 L77.874,53.636 L77.73,52.724 L76.194,52.724 L76.194,59 Z M84.462,59 L90.462,59 L90.462,57.332 L86.346,57.332 L86.346,55.508 L90.09,55.508 L90.09,53.828 L86.346,53.828 L86.346,52.28 L90.462,52.28 L90.462,50.6 L84.462,50.6 L84.462,59 Z M93.054,59 L95.418,59 L97.386,52.844 L97.386,52.724 L95.514,52.724 L94.278,57.26 L94.23,57.26 L92.958,52.724 L91.062,52.724 L91.062,52.844 L93.054,59 Z M100.674,59.108 C102.39,59.108 103.386,58.112 103.554,56.984 L101.766,56.984 C101.658,57.272 101.358,57.608 100.674,57.608 C99.834,57.608 99.462,57.092 99.45,56.36 L103.638,56.36 L103.638,55.676 C103.638,53.972 102.558,52.616 100.638,52.616 C98.598,52.616 97.566,54.092 97.566,55.868 C97.566,57.668 98.694,59.108 100.674,59.108 Z M99.462,55.196 C99.498,54.596 99.846,54.128 100.638,54.128 C101.37,54.128 101.718,54.596 101.754,55.196 L99.462,55.196 Z M104.538,59 L106.386,59 L106.386,55.52 C106.386,54.764 106.866,54.296 107.526,54.296 C108.258,54.296 108.582,54.728 108.582,55.448 L108.582,59 L110.43,59 L110.43,54.872 C110.43,53.48 109.494,52.616 108.102,52.616 C107.286,52.616 106.734,52.916 106.386,53.324 L106.338,53.324 L106.194,52.724 L104.538,52.724 L104.538,59 Z M114.27,59.108 C114.858,59.108 115.35,59 115.542,58.928 L115.542,57.392 L115.422,57.392 C115.23,57.464 115.026,57.5 114.822,57.5 C114.27,57.5 114.018,57.248 114.018,56.66 L114.018,54.296 L115.518,54.296 L115.518,52.724 L114.018,52.724 L114.018,51.08 L113.898,51.08 L112.254,51.416 L112.254,52.724 L111.15,52.724 L111.15,54.296 L112.17,54.296 L112.17,57.104 C112.17,58.244 112.818,59.108 114.27,59.108 Z M125.538,50.6 L125.538,53.816 L122.166,53.816 L122.166,50.6 L120.282,50.6 L120.282,59 L122.166,59 L122.166,55.508 L125.538,55.508 L125.538,59 L127.422,59 L127.422,50.6 L125.538,50.6 Z M131.67,59.108 C133.386,59.108 134.382,58.112 134.55,56.984 L132.762,56.984 C132.654,57.272 132.354,57.608 131.67,57.608 C130.83,57.608 130.458,57.092 130.446,56.36 L134.634,56.36 L134.634,55.676 C134.634,53.972 133.554,52.616 131.634,52.616 C129.594,52.616 128.562,54.092 128.562,55.868 C128.562,57.668 129.69,59.108 131.67,59.108 Z M130.458,55.196 C130.494,54.596 130.842,54.128 131.634,54.128 C132.366,54.128 132.714,54.596 132.75,55.196 L130.458,55.196 Z M135.534,59 L137.262,59 L137.262,55.904 C137.262,54.896 137.826,54.308 138.702,54.308 L139.302,54.308 L139.302,52.616 L138.87,52.616 C138.066,52.616 137.538,53.084 137.262,53.636 L137.214,53.636 L137.07,52.724 L135.534,52.724 L135.534,59 Z M143.01,59.108 C144.726,59.108 145.722,58.112 145.89,56.984 L144.102,56.984 C143.994,57.272 143.694,57.608 143.01,57.608 C142.17,57.608 141.798,57.092 141.786,56.36 L145.974,56.36 L145.974,55.676 C145.974,53.972 144.894,52.616 142.974,52.616 C140.934,52.616 139.902,54.092 139.902,55.868 C139.902,57.668 141.03,59.108 143.01,59.108 Z M141.798,55.196 C141.834,54.596 142.182,54.128 142.974,54.128 C143.706,54.128 144.054,54.596 144.09,55.196 L141.798,55.196 Z" id="YourEventHere" fill="#FFFFFF" fill-rule="nonzero"></path>
                        </g>
                        <rect id="Rectangle" fill="#E8E8E8" fill-rule="nonzero" x="83" y="83" width="97" height="11"></rect>
                        <rect id="Rectangle" fill="#E8E8E8" fill-rule="nonzero" x="83" y="101" width="97" height="11"></rect>
                    </g>
                </g>
            </g>
        </g>
    </g>
</svg>